<svg width="166" height="24" viewBox="0 0 166 24" fill="none" xmlns="http://www.w3.org/2000/svg">
<rect width="166" height="24" rx="2" fill="#F1F4F9"/>
<rect x="1" y="1" width="49" height="22" rx="1" fill="#E2E8F0"/>
<path d="M5.86084 16.0002H9.39351C11.3921 16.0002 12.3722 14.9818 12.3722 13.6224C12.3722 12.3014 11.4347 11.5258 10.5057 11.4789V11.3937C11.358 11.1934 12.0313 10.5968 12.0313 9.53573C12.0313 8.23602 11.0938 7.27295 9.20175 7.27295H5.86084V16.0002ZM7.44181 14.6792V12.1224H9.1847C10.1606 12.1224 10.7657 12.719 10.7657 13.4988C10.7657 14.1934 10.2884 14.6792 9.14209 14.6792H7.44181ZM7.44181 10.9846V8.57693H9.03982C9.96879 8.57693 10.4503 9.06698 10.4503 9.74028C10.4503 10.5073 9.82817 10.9846 9.00573 10.9846H7.44181Z" fill="#64748B"/>
<path d="M17.8513 13.2474C17.8513 14.2445 17.1396 14.7389 16.4578 14.7389C15.7163 14.7389 15.222 14.2147 15.222 13.3837V9.45477H13.6794V13.6224C13.6794 15.1948 14.5743 16.0854 15.8612 16.0854C16.8413 16.0854 17.5316 15.5698 17.8299 14.8369H17.8981V16.0002H19.3939V9.45477H17.8513V13.2474Z" fill="#64748B"/>
<path d="M20.9802 16.0002H22.5228V9.45477H20.9802V16.0002ZM21.7557 8.52579C22.2458 8.52579 22.6464 8.15079 22.6464 7.69056C22.6464 7.22607 22.2458 6.85107 21.7557 6.85107C21.2614 6.85107 20.8608 7.22607 20.8608 7.69056C20.8608 8.15079 21.2614 8.52579 21.7557 8.52579Z" fill="#64748B"/>
<path d="M25.6517 7.27295H24.1091V16.0002H25.6517V7.27295Z" fill="#64748B"/>
<path d="M30.5064 9.45477H29.2152V7.88659H27.6726V9.45477H26.7437V10.6479H27.6726V14.2872C27.6641 15.5187 28.559 16.1238 29.7181 16.0897C30.157 16.0769 30.4596 15.9917 30.6258 15.9363L30.3658 14.7303C30.2806 14.7516 30.1059 14.79 29.9141 14.79C29.5263 14.79 29.2152 14.6536 29.2152 14.0315V10.6479H30.5064V9.45477Z" fill="#64748B"/>
<path d="M36.6566 16.1323C37.6836 16.1323 38.2973 15.6508 38.5785 15.1011H38.6297V16.0002H40.1126V11.6195C40.1126 9.88943 38.7021 9.36954 37.4535 9.36954C36.0771 9.36954 35.0203 9.98318 34.6794 11.1764L36.1197 11.3809C36.2731 10.9335 36.7078 10.5499 37.462 10.5499C38.178 10.5499 38.57 10.9164 38.57 11.5599V11.5854C38.57 12.0286 38.1055 12.0499 36.9507 12.1735C35.6808 12.3099 34.4663 12.6891 34.4663 14.1636C34.4663 15.4505 35.4081 16.1323 36.6566 16.1323ZM37.0572 14.9988C36.4138 14.9988 35.9535 14.7048 35.9535 14.138C35.9535 13.5457 36.4691 13.2985 37.1595 13.2005C37.5643 13.1451 38.374 13.0428 38.5743 12.8809V13.6522C38.5743 14.3809 37.9862 14.9988 37.0572 14.9988Z" fill="#64748B"/>
<path d="M44.9322 9.45477H43.641V7.88659H42.0984V9.45477H41.1694V10.6479H42.0984V14.2872C42.0899 15.5187 42.9848 16.1238 44.1439 16.0897C44.5828 16.0769 44.8853 15.9917 45.0515 15.9363L44.7916 14.7303C44.7064 14.7516 44.5317 14.79 44.3399 14.79C43.9521 14.79 43.641 14.6536 43.641 14.0315V10.6479H44.9322V9.45477Z" fill="#64748B"/>
<g clip-path="url(#clip0_305:5137)">
<path d="M94.5829 8.12256V16.0592H93.6229L89.3415 11.0117V16.0592H87.8833V8.12256H88.7679L93.1255 13.2128V8.12256H94.5829Z" fill="#1C1D27"/>
<path d="M96.0289 8.65229C96.0273 8.53404 96.0498 8.41669 96.095 8.30732C96.1402 8.19795 96.2071 8.09883 96.2918 8.01592C96.3765 7.93302 96.4772 7.86805 96.5878 7.82494C96.6985 7.78182 96.8167 7.76145 96.9354 7.76506C97.17 7.76506 97.395 7.85785 97.5609 8.02303C97.7268 8.1882 97.82 8.41224 97.82 8.64583C97.82 8.87943 97.7268 9.10346 97.5609 9.26864C97.395 9.43382 97.17 9.52661 96.9354 9.52661C96.4283 9.52984 96.0289 9.16446 96.0289 8.65229ZM96.212 16.0623V10.2308H97.6256V16.0623H96.212Z" fill="#1C1D27"/>
<path d="M108.412 12.5474V16.0592H106.999V12.8055C106.999 11.8376 106.492 11.3537 105.784 11.3537C104.996 11.3537 104.435 11.9336 104.435 12.8467V16.0576H103.032V12.816C103.032 11.8925 102.537 11.3553 101.792 11.3553C101.027 11.3553 100.433 11.9135 100.433 12.8588V16.0592H99.0312V10.2277H100.408V11.0657C100.743 10.4536 101.422 10.0664 102.191 10.0664C102.913 10.0777 103.614 10.41 103.938 11.1085C104.359 10.4536 105.153 10.0664 106.044 10.0664C107.387 10.0664 108.412 10.9577 108.412 12.5474Z" fill="#1C1D27"/>
<path d="M115.952 13.1491C115.952 14.8775 114.7 16.1987 113.029 16.1987C112.177 16.1987 111.571 15.8011 111.152 15.2857V16.0592H109.775V7.89746H111.177V10.9794C111.598 10.4745 112.201 10.0881 113.04 10.0881C114.7 10.0881 115.952 11.4198 115.952 13.1491ZM114.517 13.1378C114.517 12.1699 113.849 11.377 112.824 11.377C111.799 11.377 111.123 12.1836 111.123 13.1378C111.123 14.1153 111.791 14.9122 112.824 14.9122C113.857 14.9122 114.517 14.1153 114.517 13.1378Z" fill="#1C1D27"/>
<path d="M117.063 16.0592V7.89746H118.466V16.0592H117.063Z" fill="#1C1D27"/>
<path d="M125.488 13.6426H121.022C121.194 14.3944 121.745 14.9848 122.813 14.9848C123.501 14.9712 124.17 14.7628 124.743 14.3839L125.304 15.3824C124.56 15.9073 123.671 16.1891 122.759 16.189C120.558 16.189 119.588 14.6855 119.588 13.1385C119.588 11.3987 120.803 10.0889 122.629 10.0889C124.279 10.0889 125.531 11.1737 125.531 13.0208C125.529 13.2287 125.514 13.4363 125.488 13.6426V13.6426ZM121.022 12.5796H124.15C124.031 11.7633 123.428 11.2584 122.629 11.2584C121.809 11.2584 121.205 11.7738 121.022 12.5796V12.5796Z" fill="#1C1D27"/>
<path d="M132.887 13.75C132.887 14.9744 131.982 16.0592 130.376 16.0592H126.827V8.12256H130.214C131.724 8.12256 132.469 9.13239 132.469 10.0987C132.469 10.7972 132.047 11.4739 131.379 11.7118C132.402 11.978 132.887 12.8378 132.887 13.75ZM128.282 9.42195V11.2585H129.921C130.655 11.2585 130.989 10.7746 130.989 10.314C130.989 9.85346 130.633 9.42195 129.975 9.42195H128.282ZM131.367 13.6427C131.367 13.0733 130.967 12.5047 130.093 12.5047H128.282V14.7494H130.093C130.945 14.7494 131.367 14.1799 131.367 13.6427V13.6427Z" fill="#1C1D27"/>
<path d="M133.707 13.1378C133.707 11.452 134.98 10.0776 136.836 10.0776C138.692 10.0776 139.964 11.4488 139.964 13.1378C139.964 14.8267 138.691 16.2092 136.836 16.2092C134.981 16.2092 133.707 14.8348 133.707 13.1378ZM138.551 13.1378C138.551 12.1699 137.806 11.377 136.836 11.377C135.865 11.377 135.121 12.1715 135.121 13.1378C135.121 14.1258 135.865 14.9122 136.836 14.9122C137.807 14.9122 138.551 14.1258 138.551 13.1378Z" fill="#1C1D27"/>
<path d="M144.171 16.0591L142.973 14.083L141.744 16.0591H140.115L142.078 13.0747L140.323 10.2275H141.944L143.011 12.0746L144.146 10.2275H145.742L143.887 13.1167L145.796 16.0591H144.171Z" fill="#1C1D27"/>
<path d="M146.382 15.3928C146.383 15.2831 146.406 15.1748 146.45 15.074C146.493 14.9733 146.556 14.8822 146.636 14.8062C146.715 14.7302 146.809 14.6707 146.912 14.6313C147.015 14.5918 147.124 14.5732 147.234 14.5766C147.45 14.5833 147.655 14.6733 147.805 14.8277C147.956 14.9821 148.04 15.1887 148.04 15.4037C148.04 15.6187 147.956 15.8253 147.805 15.9796C147.655 16.134 147.45 16.2241 147.234 16.2308C147.123 16.2336 147.011 16.2138 146.907 16.1728C146.804 16.1318 146.709 16.0703 146.629 15.9921C146.55 15.9139 146.487 15.8205 146.444 15.7175C146.402 15.6145 146.381 15.5041 146.382 15.3928V15.3928Z" fill="#1C1D27"/>
<path d="M154.936 10.2274V16.059H153.599V15.3395C153.362 15.6126 153.069 15.831 152.739 15.9794C152.41 16.1277 152.051 16.2025 151.689 16.1985C149.995 16.1985 148.787 14.8451 148.787 13.1166C148.787 11.3655 150.017 10.0879 151.689 10.0879C152.531 10.0879 153.147 10.4638 153.599 10.9687V10.2274H154.936ZM153.631 13.1375C153.631 12.1697 152.929 11.3631 151.905 11.3631C150.88 11.3631 150.19 12.1697 150.19 13.1375C150.19 14.1054 150.88 14.9209 151.905 14.9209C152.929 14.9209 153.631 14.1151 153.631 13.1375V13.1375Z" fill="#1C1D27"/>
<path d="M156.21 8.65226C156.208 8.53408 156.23 8.4168 156.276 8.30749C156.321 8.19818 156.388 8.09909 156.472 8.0162C156.557 7.93331 156.657 7.86832 156.768 7.82515C156.878 7.78199 156.997 7.76154 157.115 7.76503C157.35 7.76503 157.575 7.85782 157.741 8.023C157.907 8.18818 158 8.41221 158 8.64581C158 8.87941 157.907 9.10344 157.741 9.26861C157.575 9.43379 157.35 9.52659 157.115 9.52659C156.607 9.52982 156.21 9.16444 156.21 8.65226ZM156.393 16.0623V10.2307H157.805V16.0623H156.393Z" fill="#1C1D27"/>
<path d="M69.6818 4.00002C68.259 3.99759 66.8847 4.51406 65.8184 5.45185H73.546C72.48 4.51303 71.105 3.99642 69.6818 4.00002V4.00002Z" fill="#0079FF"/>
<path d="M67.4945 7.99789V7.27197C67.4945 7.17549 67.456 7.08296 67.3875 7.01475C67.319 6.94653 67.2261 6.9082 67.1292 6.9082H64.6235C64.3592 7.36299 64.158 7.85139 64.0256 8.36004H67.1275C67.1755 8.36025 67.2231 8.35105 67.2675 8.33296C67.3119 8.31488 67.3523 8.28826 67.3864 8.25463C67.4204 8.221 67.4475 8.18102 67.4661 8.13697C67.4847 8.09291 67.4943 8.04566 67.4945 7.99789V7.99789Z" fill="#4DA1FF"/>
<path d="M68.9526 7.27329V7.9992C68.9526 8.09568 68.9911 8.1882 69.0596 8.25642C69.1282 8.32464 69.2211 8.36297 69.318 8.36297H75.3412C75.209 7.85436 75.0082 7.36596 74.7441 6.91113H69.3164C69.22 6.91156 69.1278 6.94985 69.0596 7.01767C68.9915 7.0855 68.9531 7.17737 68.9526 7.27329V7.27329Z" fill="#0079FF"/>
<path d="M71.8763 10.911V10.1851C71.8763 10.0886 71.8378 9.99606 71.7693 9.92784C71.7007 9.85962 71.6078 9.82129 71.5109 9.82129H59.9798C59.8883 9.90195 59.7967 9.98261 59.71 10.0705C59.3493 10.4298 59.0374 10.8347 58.7825 11.2747H71.5109C71.6078 11.2747 71.7007 11.2364 71.7693 11.1682C71.8378 11.1 71.8763 11.0074 71.8763 10.911V10.911Z" fill="#4DA1FF"/>
<path d="M73.3362 10.1851V10.911C73.3362 11.0074 73.3747 11.1 73.4432 11.1682C73.5117 11.2364 73.6046 11.2747 73.7015 11.2747H80.5875C80.3328 10.8345 80.0209 10.4296 79.6599 10.0705C79.5732 9.98422 79.4817 9.90033 79.3901 9.82129H73.7015C73.6046 9.82129 73.5117 9.85962 73.4432 9.92784C73.3747 9.99606 73.3362 10.0886 73.3362 10.1851V10.1851Z" fill="#0079FF"/>
<path d="M65.6678 18.5439H59.9775C61.0444 19.4825 62.4198 19.999 63.8434 19.9958H65.6678C65.7158 19.9959 65.7634 19.9866 65.8078 19.9683C65.8522 19.9501 65.8926 19.9233 65.9266 19.8895C65.9606 19.8557 65.9876 19.8156 66.006 19.7714C66.0244 19.7272 66.0339 19.6799 66.0339 19.632V18.9061C66.0335 18.8098 65.9947 18.7175 65.9261 18.6496C65.8574 18.5817 65.7645 18.5437 65.6678 18.5439V18.5439Z" fill="#4DA1FF"/>
<path d="M67.4944 18.9081V19.634C67.4944 19.7304 67.5329 19.823 67.6014 19.8912C67.6699 19.9594 67.7628 19.9977 67.8597 19.9977H75.5307C76.954 20.0008 78.3291 19.4843 79.3957 18.5459H67.8581C67.7618 18.5463 67.6695 18.5846 67.6014 18.6524C67.5333 18.7203 67.4948 18.8121 67.4944 18.9081V18.9081Z" fill="#0079FF"/>
<path d="M73.3362 16.7269V16.001C73.3363 15.9532 73.327 15.9058 73.3086 15.8616C73.2903 15.8175 73.2634 15.7773 73.2294 15.7435C73.1955 15.7097 73.1552 15.6829 73.1108 15.6647C73.0664 15.6464 73.0189 15.6371 72.9709 15.6372H58.1855C58.3158 16.1464 58.5168 16.6351 58.7826 17.089H72.9709C73.0675 17.089 73.1602 17.0509 73.2286 16.9831C73.2971 16.9152 73.3358 16.8231 73.3362 16.7269V16.7269Z" fill="#4DA1FF"/>
<path d="M74.7976 15.9994V16.7253C74.7976 16.8218 74.8361 16.9143 74.9046 16.9825C74.9731 17.0507 75.0661 17.089 75.163 17.089H80.5907C80.8568 16.6351 81.058 16.1465 81.1886 15.6372H75.163C75.1151 15.6371 75.0677 15.6464 75.0234 15.6645C74.9791 15.6827 74.9389 15.7093 74.905 15.7429C74.871 15.7766 74.8441 15.8165 74.8257 15.8605C74.8072 15.9045 74.7977 15.9517 74.7976 15.9994Z" fill="#0079FF"/>
<path d="M61.6504 13.8143V13.0884C61.6504 12.9919 61.6119 12.8994 61.5433 12.8312C61.4748 12.7629 61.3819 12.7246 61.285 12.7246H58.1855C58.0619 13.1987 57.9996 13.6866 58 14.1764H61.285C61.3816 14.1764 61.4743 14.1383 61.5428 14.0705C61.6112 14.0026 61.6499 13.9105 61.6504 13.8143V13.8143Z" fill="#4DA1FF"/>
<path d="M63.1118 13.0887V13.8146C63.1118 13.9111 63.1503 14.0036 63.2188 14.0718C63.2873 14.1401 63.3803 14.1784 63.4772 14.1784H81.3717C81.372 13.6886 81.3099 13.2008 81.187 12.7266H63.4772C63.3806 12.7266 63.2879 12.7647 63.2194 12.8325C63.1509 12.9004 63.1122 12.9925 63.1118 13.0887V13.0887Z" fill="#0079FF"/>
</g>
<defs>
<clipPath id="clip0_305:5137">
<rect width="100" height="16" fill="white" transform="translate(58 4)"/>
</clipPath>
</defs>
</svg>
